<svg width="562" height="123" viewBox="0 0 562 123" fill="none" xmlns="http://www.w3.org/2000/svg">
<g clip-path="url(#clip0_1732_96)">
<path d="M397 123V0H434V12.9833H410.019V110.017H434V123H397Z" fill="#10B981"/>
<path d="M562 123V0H525V12.9833H548.981V110.017H525V123H562Z" fill="#10B981"/>
<path d="M476.912 27L500.72 94.2H482.192L478.448 82.296H455.888L452.144 94.2H434L457.904 27H476.912ZM467.408 46.872H467.024L460.688 67.128H473.744L467.408 46.872Z" fill="#1E293B"/>
<path d="M507.613 27H524.893V94.2H507.613V27Z" fill="#1E293B"/>
<path d="M0 94.2V48.792H9.696V56.088H9.888C11.04 53.464 12.704 51.448 14.88 50.04C17.12 48.568 19.584 47.832 22.272 47.832C23.808 47.832 24.992 48.056 25.824 48.504V58.584C24.928 58.2 23.776 58.008 22.368 58.008C18.72 58.008 15.808 59.224 13.632 61.656C11.456 64.088 10.368 67.864 10.368 72.984V94.2H0Z" fill="#1E293B"/>
<path d="M64.488 80.568L73.224 83.16C69.384 91.48 62.888 95.64 53.736 95.64C46.824 95.64 41.128 93.368 36.648 88.824C32.232 84.28 30.024 78.552 30.024 71.64C30.024 64.664 32.136 58.872 36.36 54.264C40.584 49.656 45.992 47.352 52.584 47.352C58.984 47.352 64.296 49.528 68.52 53.88C72.808 58.168 74.984 64.088 75.048 71.64V74.232H40.584C41.096 78.072 42.536 81.176 44.904 83.544C47.272 85.848 50.248 87 53.832 87C58.824 87 62.376 84.856 64.488 80.568ZM52.776 55.416C49.448 55.416 46.728 56.44 44.616 58.488C42.568 60.472 41.256 63.352 40.68 67.128H64.2C63.944 63.288 62.76 60.376 60.648 58.392C58.536 56.408 55.912 55.416 52.776 55.416Z" fill="#1E293B"/>
<path d="M103.863 47.352C115.255 47.352 122.359 52.504 125.175 62.808L114.999 64.344C113.335 59.096 109.719 56.472 104.151 56.472C100.247 56.472 97.207 57.88 95.031 60.696C92.919 63.448 91.863 67.032 91.863 71.448C91.863 75.864 92.919 79.48 95.031 82.296C97.207 85.048 100.247 86.424 104.151 86.424C109.527 86.424 113.111 83.832 114.903 78.648L124.695 81.048C123.287 85.72 120.823 89.336 117.303 91.896C113.783 94.392 109.495 95.64 104.439 95.64C97.527 95.64 91.959 93.4 87.735 88.92C83.511 84.376 81.399 78.552 81.399 71.448C81.399 64.28 83.511 58.488 87.735 54.072C92.023 49.592 97.399 47.352 103.863 47.352Z" fill="#1E293B"/>
<path d="M164.988 80.568L173.724 83.16C169.884 91.48 163.388 95.64 154.236 95.64C147.324 95.64 141.628 93.368 137.148 88.824C132.732 84.28 130.524 78.552 130.524 71.64C130.524 64.664 132.636 58.872 136.86 54.264C141.084 49.656 146.492 47.352 153.084 47.352C159.484 47.352 164.796 49.528 169.02 53.88C173.308 58.168 175.484 64.088 175.548 71.64V74.232H141.084C141.596 78.072 143.036 81.176 145.404 83.544C147.772 85.848 150.748 87 154.332 87C159.324 87 162.876 84.856 164.988 80.568ZM153.276 55.416C149.948 55.416 147.228 56.44 145.116 58.488C143.068 60.472 141.756 63.352 141.18 67.128H164.7C164.444 63.288 163.26 60.376 161.148 58.392C159.036 56.408 156.412 55.416 153.276 55.416Z" fill="#1E293B"/>
<path d="M195.339 27V38.04H184.875V27H195.339ZM195.339 48.792V94.2H184.875V48.792H195.339Z" fill="#1E293B"/>
<path d="M247.878 54.072C251.91 58.552 253.926 64.344 253.926 71.448C253.926 78.552 251.878 84.376 247.782 88.92C243.686 93.4 238.566 95.64 232.422 95.64C229.222 95.64 226.342 94.968 223.782 93.624C221.286 92.216 219.43 90.424 218.214 88.248V113.4H207.75V48.792H217.35V55.704H217.638C220.582 50.136 225.606 47.352 232.71 47.352C238.854 47.352 243.91 49.592 247.878 54.072ZM243.462 71.448C243.462 67.096 242.278 63.544 239.91 60.792C237.542 57.976 234.438 56.568 230.598 56.568C226.758 56.568 223.654 57.944 221.286 60.696C218.982 63.448 217.83 67.032 217.83 71.448C217.83 75.928 218.982 79.576 221.286 82.392C223.654 85.144 226.758 86.52 230.598 86.52C234.566 86.52 237.702 85.08 240.006 82.2C242.31 79.256 243.462 75.672 243.462 71.448Z" fill="#1E293B"/>
<path d="M276.503 57.624V94.2H266.039V57.624H257.783V48.792H266.039V34.488H276.503V48.792H289.079V57.624H276.503Z" fill="#1E293B"/>
<path d="M292.055 71.448C292.055 64.088 294.295 58.232 298.775 53.88C303.255 49.528 308.855 47.352 315.575 47.352C322.231 47.352 327.831 49.56 332.375 53.976C336.983 58.392 339.287 64.216 339.287 71.448C339.287 78.744 336.983 84.6 332.375 89.016C327.831 93.432 322.231 95.64 315.575 95.64C308.919 95.64 303.319 93.432 298.775 89.016C294.295 84.6 292.055 78.744 292.055 71.448ZM302.519 71.448C302.519 75.928 303.703 79.544 306.071 82.296C308.503 85.048 311.671 86.424 315.575 86.424C319.543 86.424 322.711 85.048 325.079 82.296C327.511 79.544 328.727 75.928 328.727 71.448C328.727 67.032 327.511 63.448 325.079 60.696C322.711 57.88 319.543 56.472 315.575 56.472C311.671 56.472 308.503 57.88 306.071 60.696C303.703 63.448 302.519 67.032 302.519 71.448Z" fill="#1E293B"/>
<path d="M348.656 94.2V48.792H358.352V56.088H358.544C359.696 53.464 361.36 51.448 363.536 50.04C365.776 48.568 368.24 47.832 370.928 47.832C372.464 47.832 373.648 48.056 374.48 48.504V58.584C373.584 58.2 372.432 58.008 371.024 58.008C367.376 58.008 364.464 59.224 362.288 61.656C360.112 64.088 359.024 67.864 359.024 72.984V94.2H348.656Z" fill="#1E293B"/>
</g>
<defs>
<clipPath id="clip0_1732_96">
<rect width="562" height="123" fill="white"/>
</clipPath>
</defs>
</svg>
